<svg id="Layer_1" data-name="Layer 1" xmlns="http://www.w3.org/2000/svg" viewBox="0 0 500 500"><defs><style>.cls-1{font-size:42.04px;font-family:FranklinGothic-Heavy, Franklin Gothic Heavy;font-weight:800;}.cls-1,.cls-4{fill:#65aed3;}.cls-2{letter-spacing:-0.02em;}.cls-3{letter-spacing:0em;}.cls-5{fill:#df323e;}</style></defs><text class="cls-1" transform="translate(147.36 308.11)">MED<tspan class="cls-2" x="88.39" y="0">S</tspan><tspan class="cls-3" x="113.09" y="0">YNC</tspan></text><path class="cls-4" d="M289.48,228.39a6.7,6.7,0,0,1-1.17-1.08c-.5-.73-.33-.34,0-1.09a11.41,11.41,0,0,0,.81-2,23.78,23.78,0,0,0,.51-6.56,25.7,25.7,0,0,0-1.71-6.77,26,26,0,0,0-2.56-5.75c-2.21-3.28-5.81-5.3-9.44-6.64a60.52,60.52,0,0,0-15.49-3.38,85.55,85.55,0,0,0-16.55.23,25.21,25.21,0,0,0-7.11,1.89l0,3.72c-.72.41,0,0-1.37.58-1.17.5-2.51,1.07-3,1.35a19.52,19.52,0,0,0-6.34,6.52c-3.64,6-3.81,11.81-2.9,19.28a25.39,25.39,0,0,0,4.15,11c.93,1.43,2,2.84,3,4.21,1.26,1.7,2.57,3.47,3.72,5.33,2,3.22,4.4,8.1,2.49,13.29-1.29,3.48-4.07,6.59-8.27,9.24-.49.63-.33,3.49.24,4.15v0l7.76,0h.18c0-3.21,0-6.68,0-10.21a16.48,16.48,0,0,0,.91-1.52c2.14-4.13,1.62-8.5-.36-12.59l-.5-1c0-.75,0-1.48,0-2.21V246l18.63.06,11.27,0q0-9.87.07-19.74l-27.5-.09h-2.4q0-9.32.07-18.63,0-3.31,0-6.65a20.36,20.36,0,0,1,9.86-2.86,113.09,113.09,0,0,1,15.73.66,47.39,47.39,0,0,1,14.14,3.69c3.56,1.67,6,3.84,7.38,7.54a38.77,38.77,0,0,1,2.08,6.39,19.07,19.07,0,0,1-.12,6.26c-.23,1.58-1.62,2.78-1.46,4.39s1.64,3,2.86,4c2.5,2.05,5.06,4.17,6.75,7,.13.22.24.5.39.72a1.24,1.24,0,0,1,.08.28c-.37.06-.71.13-1.07.16-1.63.15-2.8-.91-5.24,1.86-1.46,1.66-1.81,9.56-1.37,11.19h0c.1.9.26,1.81.27,2.66.05,3-2.23,3.57-4.74,3.91a22.64,22.64,0,0,1-3.67.32c-1.19,0-2.32-.37-3.49-.51a6.88,6.88,0,0,0-3.73.43c-2.09,1-2.72,3.24-2.51,5.42.38,4.06,2.7,7.89,4.23,11.43h3.77c-1.53-3.87-4.18-7.49-4.52-11.72-.18-2.27,1.12-2.33,3.15-2a21.06,21.06,0,0,0,6.77.1c2.22-.28,4.63-.58,6.33-2.2a6.71,6.71,0,0,0,1.92-4.94,28.48,28.48,0,0,0-.23-2.92c0-1.36.26-8.46.29-8.71.17-1.28,3.35-.82,4.35-1C303.47,240.64,292.07,230.55,289.48,228.39ZM294.64,239c.09-.07.18,0,0,0Z"/><path class="cls-5" d="M226.54,269c3.61-2.28,6-4.86,7-7.67,1.1-3,.42-6.23-2.21-10.5-1.08-1.75-2.35-3.46-3.57-5.11-1-1.4-2.1-2.85-3.08-4.35A28.46,28.46,0,0,1,220,229c-1-8.16-.78-14.57,3.34-21.34a22.67,22.67,0,0,1,7.4-7.58,23.21,23.21,0,0,1,3.38-1.84c1.17-.5,2-.76,2.58-1.08v-.82L217,196.31q0,13.75-.1,27.5v2.39l-18.63-.06-11.27,0h0q0,8,0,16h0v3.71h3.24l24.25.08h2.4q0,9.31-.07,18.63l0,11.27h0l8.38,0C224.5,273.55,224.6,270.23,226.54,269Z"/><rect class="cls-4" x="284.97" y="190" width="10" height="10"/><rect class="cls-4" x="276.97" y="182" width="7" height="7"/><rect class="cls-4" x="295.97" y="184" width="5" height="5"/></svg>